<svg xmlns="http://www.w3.org/2000/svg" xmlns:xlink="http://www.w3.org/1999/xlink" width="500" zoomAndPan="magnify" viewBox="0 0 375 187.499995" height="250" preserveAspectRatio="xMidYMid meet" version="1.0"><defs><g/><clipPath id="4df19f8708"><path d="M 15 8.835938 L 63 8.835938 L 63 64 L 15 64 Z M 15 8.835938 " clip-rule="nonzero"/></clipPath><clipPath id="f4734bf8b5"><path d="M 16 12 L 107.539062 12 L 107.539062 99 L 16 99 Z M 16 12 " clip-rule="nonzero"/></clipPath><clipPath id="c53927ca15"><path d="M 32 59 L 81 59 L 81 129.839844 L 32 129.839844 Z M 32 59 " clip-rule="nonzero"/></clipPath><clipPath id="0914e53784"><path d="M 0.5 81 L 38 81 L 38 100 L 0.5 100 Z M 0.5 81 " clip-rule="nonzero"/></clipPath></defs><g fill="#ffffff" fill-opacity="1"><g transform="translate(118.839428, 54.607418)"><g><path d="M 25.09375 -23.3125 C 30.8125 -22.65625 34.878906 -21.425781 37.296875 -19.625 C 39.722656 -17.832031 40.9375 -15.140625 40.9375 -11.546875 C 40.9375 -7.960938 39.175781 -5.054688 35.65625 -2.828125 C 32.132812 -0.597656 27.460938 0.515625 21.640625 0.515625 C 15.816406 0.515625 11.289062 -0.550781 8.0625 -2.6875 C 4.84375 -4.832031 3.234375 -7.472656 3.234375 -10.609375 C 3.234375 -11.378906 3.632812 -11.765625 4.4375 -11.765625 L 15.15625 -11.765625 C 15.894531 -11.765625 16.488281 -11.535156 16.9375 -11.078125 C 17.914062 -10.140625 19.609375 -9.671875 22.015625 -9.671875 C 25.328125 -9.671875 26.984375 -10.175781 26.984375 -11.1875 C 26.984375 -11.8125 26.457031 -12.304688 25.40625 -12.671875 C 24.363281 -13.046875 22.289062 -13.40625 19.1875 -13.75 C 9.320312 -14.9375 4.390625 -18.71875 4.390625 -25.09375 C 4.390625 -28.6875 5.972656 -31.585938 9.140625 -33.796875 C 12.316406 -36.015625 16.5625 -37.125 21.875 -37.125 C 27.195312 -37.125 31.492188 -35.960938 34.765625 -33.640625 C 38.046875 -31.328125 39.6875 -28.878906 39.6875 -26.296875 C 39.6875 -25.953125 39.570312 -25.671875 39.34375 -25.453125 C 39.113281 -25.242188 38.804688 -25.140625 38.421875 -25.140625 L 27.1875 -25.140625 C 26.5625 -25.140625 26.019531 -25.351562 25.5625 -25.78125 C 24.726562 -26.539062 23.472656 -26.921875 21.796875 -26.921875 C 19.460938 -26.921875 18.296875 -26.429688 18.296875 -25.453125 C 18.296875 -24.929688 18.75 -24.519531 19.65625 -24.21875 C 20.5625 -23.925781 22.375 -23.625 25.09375 -23.3125 Z M 25.09375 -23.3125 "/></g></g></g><g fill="#ffffff" fill-opacity="1"><g transform="translate(163.260732, 54.607418)"><g><path d="M 8 -36.59375 L 27.546875 -36.59375 C 32.492188 -36.59375 36.414062 -35.390625 39.3125 -32.984375 C 42.207031 -30.578125 43.65625 -27.492188 43.65625 -23.734375 C 43.65625 -19.972656 42.429688 -16.984375 39.984375 -14.765625 C 37.546875 -12.554688 33.398438 -11.453125 27.546875 -11.453125 L 20.65625 -11.453125 L 20.65625 -1.40625 C 20.65625 -1.03125 20.515625 -0.703125 20.234375 -0.421875 C 19.953125 -0.140625 19.617188 0 19.234375 0 L 8 0 C 7.613281 0 7.28125 -0.140625 7 -0.421875 C 6.726562 -0.703125 6.59375 -1.03125 6.59375 -1.40625 L 6.59375 -35.1875 C 6.59375 -35.570312 6.726562 -35.898438 7 -36.171875 C 7.28125 -36.453125 7.613281 -36.59375 8 -36.59375 Z M 20.703125 -26.875 L 20.703125 -21.125 L 27.34375 -21.125 C 28.144531 -21.125 28.796875 -21.363281 29.296875 -21.84375 C 29.804688 -22.332031 30.0625 -23.015625 30.0625 -23.890625 C 30.0625 -24.765625 29.816406 -25.476562 29.328125 -26.03125 C 28.835938 -26.59375 28.175781 -26.875 27.34375 -26.875 Z M 20.703125 -26.875 "/></g></g></g><g fill="#ffffff" fill-opacity="1"><g transform="translate(207.682036, 54.607418)"><g><path d="M 18.296875 -10.1875 L 39.15625 -10.1875 C 39.539062 -10.1875 39.867188 -10.046875 40.140625 -9.765625 C 40.421875 -9.492188 40.5625 -9.164062 40.5625 -8.78125 L 40.5625 -1.40625 C 40.5625 -1.03125 40.421875 -0.703125 40.140625 -0.421875 C 39.867188 -0.140625 39.539062 0 39.15625 0 L 6.109375 0 C 5.734375 0 5.40625 -0.140625 5.125 -0.421875 C 4.84375 -0.703125 4.703125 -1.03125 4.703125 -1.40625 L 4.703125 -35.1875 C 4.703125 -35.570312 4.84375 -35.898438 5.125 -36.171875 C 5.40625 -36.453125 5.734375 -36.59375 6.109375 -36.59375 L 38.640625 -36.59375 C 39.015625 -36.59375 39.34375 -36.453125 39.625 -36.171875 C 39.90625 -35.898438 40.046875 -35.570312 40.046875 -35.1875 L 40.046875 -27.8125 C 40.046875 -27.425781 39.90625 -27.09375 39.625 -26.8125 C 39.34375 -26.539062 39.015625 -26.40625 38.640625 -26.40625 L 18.296875 -26.40625 L 18.296875 -23.109375 L 35.765625 -23.109375 C 36.140625 -23.109375 36.46875 -22.96875 36.75 -22.6875 C 37.03125 -22.40625 37.171875 -22.078125 37.171875 -21.703125 L 37.171875 -14.90625 C 37.171875 -14.519531 37.03125 -14.1875 36.75 -13.90625 C 36.46875 -13.625 36.140625 -13.484375 35.765625 -13.484375 L 18.296875 -13.484375 Z M 18.296875 -10.1875 "/></g></g></g><g fill="#ffffff" fill-opacity="1"><g transform="translate(252.103339, 54.607418)"><g><path d="M 28.859375 -36.59375 L 38.578125 -36.59375 C 38.960938 -36.59375 39.296875 -36.453125 39.578125 -36.171875 C 39.859375 -35.898438 40 -35.570312 40 -35.1875 L 40 -1.40625 C 40 -1.03125 39.859375 -0.703125 39.578125 -0.421875 C 39.296875 -0.140625 38.960938 0 38.578125 0 L 30.171875 0 C 29.328125 0 28.628906 -0.363281 28.078125 -1.09375 L 16.671875 -15.625 L 16.671875 -1.40625 C 16.671875 -1.03125 16.53125 -0.703125 16.25 -0.421875 C 15.976562 -0.140625 15.648438 0 15.265625 0 L 5.546875 0 C 5.160156 0 4.828125 -0.140625 4.546875 -0.421875 C 4.265625 -0.703125 4.125 -1.03125 4.125 -1.40625 L 4.125 -35.1875 C 4.125 -35.570312 4.265625 -35.898438 4.546875 -36.171875 C 4.828125 -36.453125 5.160156 -36.59375 5.546875 -36.59375 L 14.015625 -36.59375 C 14.847656 -36.59375 15.523438 -36.242188 16.046875 -35.546875 L 27.453125 -19.8125 L 27.453125 -35.1875 C 27.453125 -35.570312 27.585938 -35.898438 27.859375 -36.171875 C 28.140625 -36.453125 28.472656 -36.59375 28.859375 -36.59375 Z M 28.859375 -36.59375 "/></g></g></g><g fill="#ffffff" fill-opacity="1"><g transform="translate(296.524643, 54.607418)"><g><path d="M 5.390625 -36.59375 L 22.0625 -36.59375 C 25.894531 -36.59375 29.222656 -36.085938 32.046875 -35.078125 C 34.867188 -34.066406 37.148438 -32.359375 38.890625 -29.953125 C 40.640625 -27.546875 41.515625 -24.550781 41.515625 -20.96875 L 41.515625 -15.625 C 41.515625 -10.050781 39.628906 -5.992188 35.859375 -3.453125 C 32.410156 -1.148438 27.8125 0 22.0625 0 L 5.390625 0 C 5.003906 0 4.671875 -0.140625 4.390625 -0.421875 C 4.109375 -0.703125 3.96875 -1.03125 3.96875 -1.40625 L 3.96875 -35.1875 C 3.96875 -35.570312 4.109375 -35.898438 4.390625 -36.171875 C 4.671875 -36.453125 5.003906 -36.59375 5.390625 -36.59375 Z M 17.5625 -26.40625 L 17.5625 -10.1875 L 22.328125 -10.1875 C 23.960938 -10.1875 25.257812 -10.578125 26.21875 -11.359375 C 27.175781 -12.148438 27.65625 -13.257812 27.65625 -14.6875 L 27.65625 -21.90625 C 27.65625 -23.332031 27.175781 -24.4375 26.21875 -25.21875 C 25.257812 -26.007812 23.960938 -26.40625 22.328125 -26.40625 Z M 17.5625 -26.40625 "/></g></g></g><g fill="#c1ff72" fill-opacity="1"><g transform="translate(118.839428, 115.109026)"><g><path d="M 25.09375 -23.3125 C 30.8125 -22.65625 34.878906 -21.425781 37.296875 -19.625 C 39.722656 -17.832031 40.9375 -15.140625 40.9375 -11.546875 C 40.9375 -7.960938 39.175781 -5.054688 35.65625 -2.828125 C 32.132812 -0.597656 27.460938 0.515625 21.640625 0.515625 C 15.816406 0.515625 11.289062 -0.550781 8.0625 -2.6875 C 4.84375 -4.832031 3.234375 -7.472656 3.234375 -10.609375 C 3.234375 -11.378906 3.632812 -11.765625 4.4375 -11.765625 L 15.15625 -11.765625 C 15.894531 -11.765625 16.488281 -11.535156 16.9375 -11.078125 C 17.914062 -10.140625 19.609375 -9.671875 22.015625 -9.671875 C 25.328125 -9.671875 26.984375 -10.175781 26.984375 -11.1875 C 26.984375 -11.8125 26.457031 -12.304688 25.40625 -12.671875 C 24.363281 -13.046875 22.289062 -13.40625 19.1875 -13.75 C 9.320312 -14.9375 4.390625 -18.71875 4.390625 -25.09375 C 4.390625 -28.6875 5.972656 -31.585938 9.140625 -33.796875 C 12.316406 -36.015625 16.5625 -37.125 21.875 -37.125 C 27.195312 -37.125 31.492188 -35.960938 34.765625 -33.640625 C 38.046875 -31.328125 39.6875 -28.878906 39.6875 -26.296875 C 39.6875 -25.953125 39.570312 -25.671875 39.34375 -25.453125 C 39.113281 -25.242188 38.804688 -25.140625 38.421875 -25.140625 L 27.1875 -25.140625 C 26.5625 -25.140625 26.019531 -25.351562 25.5625 -25.78125 C 24.726562 -26.539062 23.472656 -26.921875 21.796875 -26.921875 C 19.460938 -26.921875 18.296875 -26.429688 18.296875 -25.453125 C 18.296875 -24.929688 18.75 -24.519531 19.65625 -24.21875 C 20.5625 -23.925781 22.375 -23.625 25.09375 -23.3125 Z M 25.09375 -23.3125 "/></g></g></g><g fill="#c1ff72" fill-opacity="1"><g transform="translate(163.260732, 115.109026)"><g><path d="M 31.3125 -36.59375 L 40.890625 -36.59375 C 41.265625 -36.59375 41.59375 -36.453125 41.875 -36.171875 C 42.15625 -35.898438 42.296875 -35.570312 42.296875 -35.1875 L 42.296875 -1.40625 C 42.296875 -1.03125 42.15625 -0.703125 41.875 -0.421875 C 41.59375 -0.140625 41.265625 0 40.890625 0 L 31.421875 0 C 31.035156 0 30.703125 -0.140625 30.421875 -0.421875 C 30.148438 -0.703125 30.015625 -1.03125 30.015625 -1.40625 L 30.015625 -17.625 L 26.1875 -10.09375 C 25.976562 -9.675781 25.664062 -9.351562 25.25 -9.125 C 24.832031 -8.894531 24.414062 -8.78125 24 -8.78125 L 20.4375 -8.78125 C 19.84375 -8.78125 19.351562 -8.9375 18.96875 -9.25 C 18.59375 -9.5625 18.351562 -9.84375 18.25 -10.09375 L 14.421875 -17.625 L 14.421875 -1.40625 C 14.421875 -1.03125 14.28125 -0.703125 14 -0.421875 C 13.726562 -0.140625 13.398438 0 13.015625 0 L 3.5625 0 C 3.175781 0 2.84375 -0.140625 2.5625 -0.421875 C 2.28125 -0.703125 2.140625 -1.03125 2.140625 -1.40625 L 2.140625 -35.1875 C 2.140625 -35.570312 2.28125 -35.898438 2.5625 -36.171875 C 2.84375 -36.453125 3.175781 -36.59375 3.5625 -36.59375 L 13.125 -36.59375 C 14.101562 -36.59375 14.851562 -36.125 15.375 -35.1875 L 22.21875 -22.640625 L 29.0625 -35.1875 C 29.59375 -36.125 30.34375 -36.59375 31.3125 -36.59375 Z M 31.3125 -36.59375 "/></g></g></g><g fill="#c1ff72" fill-opacity="1"><g transform="translate(207.682036, 115.109026)"><g><path d="M 12.34375 0 L 2.453125 0 C 2.140625 0 1.867188 -0.109375 1.640625 -0.328125 C 1.421875 -0.554688 1.3125 -0.773438 1.3125 -0.984375 C 1.3125 -1.203125 1.328125 -1.363281 1.359375 -1.46875 L 12.75 -34.875 C 13.070312 -36.019531 13.859375 -36.59375 15.109375 -36.59375 L 29.640625 -36.59375 C 30.898438 -36.59375 31.6875 -36.019531 32 -34.875 L 43.390625 -1.46875 C 43.429688 -1.363281 43.453125 -1.203125 43.453125 -0.984375 C 43.453125 -0.773438 43.335938 -0.554688 43.109375 -0.328125 C 42.878906 -0.109375 42.609375 0 42.296875 0 L 32.421875 0 C 31.296875 0 30.507812 -0.59375 30.0625 -1.78125 L 28.75 -5.4375 L 16 -5.4375 L 14.6875 -1.78125 C 14.238281 -0.59375 13.457031 0 12.34375 0 Z M 26.09375 -15.625 L 22.375 -26.5 L 18.671875 -15.625 Z M 26.09375 -15.625 "/></g></g></g><g fill="#c1ff72" fill-opacity="1"><g transform="translate(252.103339, 115.109026)"><g><path d="M 42.96875 -1.625 C 43.039062 -1.476562 43.078125 -1.28125 43.078125 -1.03125 C 43.078125 -0.789062 42.960938 -0.554688 42.734375 -0.328125 C 42.515625 -0.109375 42.242188 0 41.921875 0 L 30.0625 0 C 29.019531 0 28.285156 -0.4375 27.859375 -1.3125 L 23.265625 -11.65625 L 18.875 -11.65625 L 18.875 -1.40625 C 18.875 -1.03125 18.734375 -0.703125 18.453125 -0.421875 C 18.171875 -0.140625 17.84375 0 17.46875 0 L 6.171875 0 C 5.785156 0 5.453125 -0.140625 5.171875 -0.421875 C 4.890625 -0.703125 4.75 -1.03125 4.75 -1.40625 L 4.75 -35.1875 C 4.75 -35.570312 4.890625 -35.898438 5.171875 -36.171875 C 5.453125 -36.453125 5.785156 -36.59375 6.171875 -36.59375 L 26.5 -36.59375 C 31.28125 -36.59375 35.0625 -35.457031 37.84375 -33.1875 C 40.632812 -30.925781 42.03125 -27.84375 42.03125 -23.9375 C 42.03125 -19.195312 40.203125 -15.765625 36.546875 -13.640625 Z M 18.875 -26.875 L 18.875 -21.328125 L 25.40625 -21.328125 C 26.175781 -21.328125 26.769531 -21.578125 27.1875 -22.078125 C 27.601562 -22.585938 27.8125 -23.222656 27.8125 -23.984375 C 27.8125 -24.753906 27.609375 -25.425781 27.203125 -26 C 26.804688 -26.582031 26.207031 -26.875 25.40625 -26.875 Z M 18.875 -26.875 "/></g></g></g><g fill="#c1ff72" fill-opacity="1"><g transform="translate(296.524643, 115.109026)"><g><path d="M 4.1875 -36.59375 L 40.25 -36.59375 C 40.632812 -36.59375 40.96875 -36.453125 41.25 -36.171875 C 41.53125 -35.898438 41.671875 -35.570312 41.671875 -35.1875 L 41.671875 -26.765625 C 41.671875 -26.378906 41.53125 -26.046875 41.25 -25.765625 C 40.96875 -25.492188 40.632812 -25.359375 40.25 -25.359375 L 29.015625 -25.359375 L 29.015625 -1.40625 C 29.015625 -1.03125 28.875 -0.703125 28.59375 -0.421875 C 28.3125 -0.140625 27.984375 0 27.609375 0 L 16.828125 0 C 16.453125 0 16.125 -0.140625 15.84375 -0.421875 C 15.5625 -0.703125 15.421875 -1.03125 15.421875 -1.40625 L 15.421875 -25.359375 L 4.1875 -25.359375 C 3.800781 -25.359375 3.46875 -25.492188 3.1875 -25.765625 C 2.90625 -26.046875 2.765625 -26.378906 2.765625 -26.765625 L 2.765625 -35.1875 C 2.765625 -35.570312 2.90625 -35.898438 3.1875 -36.171875 C 3.46875 -36.453125 3.800781 -36.59375 4.1875 -36.59375 Z M 4.1875 -36.59375 "/></g></g></g><path fill="#c1ff72" d="M 13.546875 14.894531 L 3.011719 79.042969 L 35.46875 18.496094 Z M 13.546875 14.894531 " fill-opacity="1" fill-rule="nonzero"/><path fill="#c1ff72" d="M 7.167969 79.414062 L 36.882812 95.347656 L 12.320312 69.808594 Z M 7.167969 79.414062 " fill-opacity="1" fill-rule="nonzero"/><g clip-path="url(#4df19f8708)"><path fill="#c1ff72" d="M 62.746094 18.355469 L 45 8.84375 L 15.578125 63.730469 Z M 62.746094 18.355469 " fill-opacity="1" fill-rule="nonzero"/></g><g clip-path="url(#f4734bf8b5)"><path fill="#c1ff72" d="M 46.261719 98.367188 C 46.472656 97.890625 46.71875 97.355469 47.03125 96.664062 C 49.835938 90.519531 48.210938 82.609375 44.234375 70.164062 C 41.695312 62.214844 44.902344 58.1875 47.039062 56.492188 C 47.242188 56.332031 47.472656 56.214844 47.695312 56.089844 C 46.355469 50.117188 47.96875 43.621094 52.613281 38.976562 C 59.832031 31.757812 71.535156 31.753906 78.757812 38.972656 C 85.976562 46.191406 85.972656 57.898438 78.757812 65.113281 C 74.914062 68.957031 69.804688 70.6875 64.773438 70.4375 C 64.933594 70.796875 68.949219 84.039062 68.949219 84.039062 L 107.789062 46.675781 L 73.984375 12.875 L 16.28125 68.386719 L 46.261719 98.367188 " fill-opacity="1" fill-rule="nonzero"/></g><g clip-path="url(#c53927ca15)"><path fill="#c1ff72" d="M 65.835938 87.035156 L 61.613281 72.761719 C 61.21875 71.796875 60.707031 70.707031 60.140625 69.589844 C 58.1875 65.746094 55.460938 61.484375 53.675781 60.089844 C 52.484375 59.15625 50.261719 58.84375 49.421875 59.503906 C 49.117188 59.742188 48.824219 60.050781 48.542969 60.394531 C 48.507812 60.4375 48.46875 60.484375 48.433594 60.527344 C 48.304688 60.695312 48.191406 60.875 48.074219 61.0625 C 48.019531 61.15625 47.96875 61.25 47.917969 61.347656 C 47.824219 61.519531 47.738281 61.703125 47.660156 61.898438 C 47.605469 62.039062 47.554688 62.1875 47.507812 62.339844 C 47.449219 62.523438 47.390625 62.707031 47.347656 62.910156 C 47.304688 63.101562 47.273438 63.3125 47.246094 63.519531 C 47.214844 63.714844 47.1875 63.90625 47.175781 64.117188 C 47.15625 64.367188 47.164062 64.640625 47.167969 64.914062 C 47.171875 65.117188 47.167969 65.308594 47.183594 65.523438 C 47.207031 65.855469 47.269531 66.222656 47.328125 66.585938 C 47.355469 66.777344 47.371094 66.949219 47.410156 67.144531 C 47.53125 67.726562 47.683594 68.339844 47.894531 68.996094 C 52.164062 82.355469 53.847656 90.976562 50.527344 98.253906 C 50.160156 99.066406 49.882812 99.667969 49.671875 100.148438 C 49.667969 100.164062 49.664062 100.171875 49.660156 100.183594 C 49.457031 100.648438 49.316406 101.003906 49.210938 101.3125 C 49.210938 101.3125 49.210938 101.316406 49.210938 101.316406 C 49 101.9375 48.929688 102.414062 48.796875 103.34375 L 48.527344 105.191406 L 32.597656 103.34375 C 32.617188 106.503906 33.304688 113.160156 38.101562 119.570312 L 38.484375 120.085938 L 38.484375 129.945312 L 70.21875 129.386719 L 68.351562 129.386719 L 68.351562 119.667969 L 68.566406 119.25 C 68.660156 119.070312 77.957031 100.902344 79.890625 86.832031 C 80.269531 84.070312 80.578125 80.894531 80.792969 78.3125 L 67.179688 91.578125 L 65.835938 87.035156 " fill-opacity="1" fill-rule="nonzero"/></g><path fill="#c1ff72" d="M 69.292969 52.449219 C 70.132812 52.027344 70.886719 51.847656 71.59375 51.882812 C 72.535156 51.941406 73.488281 52.492188 74.519531 53.5625 C 74.519531 53.566406 74.523438 53.570312 74.523438 53.570312 C 74.597656 53.640625 74.742188 53.820312 74.953125 54.226562 C 75.105469 54.511719 75.195312 54.847656 75.238281 55.261719 C 75.285156 55.65625 75.21875 56.132812 75.058594 56.671875 C 74.964844 56.992188 74.792969 57.332031 74.546875 57.703125 Z M 66.824219 54.160156 C 66.828125 54.15625 66.832031 54.152344 66.835938 54.148438 C 66.84375 54.148438 66.847656 54.144531 66.855469 54.140625 C 66.84375 54.148438 66.832031 54.152344 66.824219 54.160156 Z M 62.820312 53.035156 C 62.140625 53.253906 61.53125 53.375 61.003906 53.382812 C 60.570312 53.398438 60.140625 53.324219 59.808594 53.171875 C 59.445312 52.996094 59.09375 52.777344 58.769531 52.515625 C 57.875 51.699219 57.425781 50.707031 57.402344 49.488281 C 57.382812 48.503906 57.746094 47.496094 58.484375 46.492188 L 64.285156 52.292969 C 63.75 52.648438 63.257812 52.894531 62.820312 53.035156 Z M 65.988281 61.132812 C 65.496094 60.773438 64.710938 60.648438 63.957031 61.335938 C 63.488281 61.769531 63.414062 62.210938 63.441406 62.507812 C 63.464844 62.800781 63.601562 63.21875 64.105469 63.550781 C 65.351562 64.402344 66.675781 64.828125 68.054688 64.828125 C 68.578125 64.828125 69.105469 64.769531 69.640625 64.652344 C 71.234375 64.292969 72.789062 63.5 74.273438 62.28125 L 74.925781 62.9375 C 75.382812 63.394531 75.871094 63.558594 76.269531 63.46875 C 76.703125 63.421875 77.066406 63.25 77.347656 62.96875 C 77.621094 62.695312 77.792969 62.339844 77.863281 61.855469 C 77.90625 61.351562 77.726562 60.871094 77.351562 60.507812 L 76.675781 59.828125 C 77.773438 58.347656 78.292969 56.894531 78.230469 55.488281 C 78.152344 53.898438 77.640625 52.550781 76.738281 51.507812 C 76.265625 50.9375 75.707031 50.429688 75.03125 49.96875 C 74.320312 49.480469 73.554688 49.152344 72.691406 48.960938 C 71.839844 48.785156 70.878906 48.808594 69.828125 49.042969 C 68.976562 49.230469 68.054688 49.632812 67.082031 50.234375 L 61.144531 44.300781 C 61.316406 44.238281 61.492188 44.191406 61.660156 44.160156 C 62.21875 44.046875 62.753906 44.023438 63.253906 44.078125 C 63.738281 44.121094 64.183594 44.246094 64.601562 44.457031 C 65.0625 44.691406 65.457031 44.949219 65.8125 45.246094 C 66.257812 45.613281 66.667969 45.664062 66.964844 45.632812 C 67.222656 45.601562 67.601562 45.488281 67.921875 45.074219 C 68.136719 44.792969 68.5625 44.039062 67.769531 42.878906 C 66.332031 41.5 64.738281 40.796875 62.976562 40.820312 C 61.554688 40.832031 60.195312 41.257812 58.929688 42.082031 L 58.0625 41.214844 C 57.691406 40.851562 57.199219 40.679688 56.6875 40.722656 C 56.253906 40.78125 55.890625 40.953125 55.609375 41.234375 C 55.320312 41.523438 55.152344 41.890625 55.105469 42.382812 C 55.097656 42.703125 55.179688 43.1875 55.640625 43.648438 L 56.363281 44.371094 C 55.800781 45.070312 55.351562 45.796875 55.015625 46.535156 C 54.546875 47.566406 54.300781 48.585938 54.273438 49.578125 C 54.25 50.578125 54.4375 51.546875 54.832031 52.46875 C 55.234375 53.410156 55.847656 54.222656 56.648438 54.882812 C 58.140625 56.09375 59.789062 56.644531 61.65625 56.484375 C 63.21875 56.363281 64.804688 55.707031 66.445312 54.457031 L 72.164062 60.171875 C 71.0625 61.046875 70.015625 61.558594 69.042969 61.695312 C 67.84375 61.859375 66.824219 61.65625 65.988281 61.132812 " fill-opacity="1" fill-rule="nonzero"/><g clip-path="url(#0914e53784)"><path fill="#c1ff72" d="M 2.625 81.40625 L 0.570312 93.910156 L 37.339844 99.945312 Z M 2.625 81.40625 " fill-opacity="1" fill-rule="nonzero"/></g></svg>